HIERARCHY
ROOT pelvis
{
    OFFSET 0.0 91.00648498535156 0.0
    CHANNELS 6 Xposition Yposition Zposition Zrotation Yrotation Xrotation

    JOINT left_hip
    {
        OFFSET -6.184089660644531 -4.6950531005859375 -1.9466856718063354
        CHANNELS 3 Zrotation Yrotation Xrotation

        JOINT left_knee
        {
            OFFSET -4.348874092102051 -41.048187255859375 -4.477793216705322
            CHANNELS 3 Zrotation Yrotation Xrotation

            JOINT left_ankle
            {
                OFFSET 0.8000860214233398 -42.05607604980469 -2.1952080726623535
                CHANNELS 3 Zrotation Yrotation Xrotation

                JOINT left_foot
                {
                    OFFSET -6.1337995529174805 -2.7985777854919434 12.216135025024414
                    CHANNELS 3 Zrotation Yrotation Xrotation

                    End Site
                    {
                        OFFSET 0 0 0
                    }
                }
            }
        }
    }

    JOINT right_hip
    {
        OFFSET 7.3762102127075195 -4.652305603027344 -1.095921277999878
        CHANNELS 3 Zrotation Yrotation Xrotation

        JOINT right_knee
        {
            OFFSET 9.077946662902832 -41.12553787231445 -5.195260047912598
            CHANNELS 3 Zrotation Yrotation Xrotation

            JOINT right_ankle
            {
                OFFSET 2.5560970306396484 -40.36468505859375 0.3395204544067383
                CHANNELS 3 Zrotation Yrotation Xrotation

                JOINT right_foot
                {
                    OFFSET 2.343048095703125 -3.387235164642334 14.70488452911377
                    CHANNELS 3 Zrotation Yrotation Xrotation

                    End Site
                    {
                        OFFSET 0 0 0
                    }
                }
            }
        }
    }

    JOINT spine1
    {
        OFFSET 0.02552017942070961 17.621856689453125 -1.0625170469284058
        CHANNELS 3 Zrotation Yrotation Xrotation

        JOINT spine2
        {
            OFFSET 0.21316708624362946 12.010650634765625 3.084238052368164
            CHANNELS 3 Zrotation Yrotation Xrotation

            JOINT spine3
            {
                OFFSET -0.07614581286907196 3.0033340454101562 3.9873390197753906
                CHANNELS 3 Zrotation Yrotation Xrotation

                JOINT left_collar
                {
                    OFFSET -6.876729488372803 10.003364562988281 -3.3675177097320557
                    CHANNELS 3 Zrotation Yrotation Xrotation

                    JOINT left_shoulder
                    {
                        OFFSET -12.84560775756836 0.03887939453125 -2.180781602859497
                        CHANNELS 3 Zrotation Yrotation Xrotation

                        JOINT left_elbow
                        {
                            OFFSET -10.683326721191406 -18.971221923828125 -9.113794326782227
                            CHANNELS 3 Zrotation Yrotation Xrotation

                            JOINT left_wrist
                            {
                                OFFSET -28.408432006835938 -1.7157440185546875 0.7068133354187012
                                CHANNELS 3 Zrotation Yrotation Xrotation

                                End Site
                                {
                                    OFFSET 0 0 0
                                }
                            }
                        }
                    }
                }

                JOINT right_collar
                {
                    OFFSET 7.04063606262207 10.003852844238281 -1.3289637565612793
                    CHANNELS 3 Zrotation Yrotation Xrotation

                    JOINT right_shoulder
                    {
                        OFFSET 12.298832893371582 1.0088958740234375 2.050689697265625
                        CHANNELS 3 Zrotation Yrotation Xrotation

                        JOINT right_elbow
                        {
                            OFFSET 19.75140380859375 -14.405769348144531 -5.595602035522461
                            CHANNELS 3 Zrotation Yrotation Xrotation

                            JOINT right_wrist
                            {
                                OFFSET 23.810379028320312 -16.782806396484375 8.137945175170898
                                CHANNELS 3 Zrotation Yrotation Xrotation

                                End Site
                                {
                                    OFFSET 0 0 0
                                }
                            }
                        }
                    }
                }

                JOINT neck
                {
                    OFFSET -0.1834198385477066 21.27173614501953 -1.9469947814941406
                    CHANNELS 3 Zrotation Yrotation Xrotation

                    JOINT head
                    {
                        OFFSET -0.9166092872619629 13.209671020507812 4.862464904785156
                        CHANNELS 3 Zrotation Yrotation Xrotation

                        End Site
                        {
                            OFFSET 0 0 0
                        }
                    }
                }
            }
        }
    }

}

MOTION
Frames: 11
Frame Time: 0.050000
-15.841031 87.569450 -8.501947 0.000000 0.000000 -0.000000 -19.743749 -18.068549 -15.300898 -14.416951 -12.965665 18.536817 -111.472652 -34.080352 -44.310383 0.000000 0.000000 -0.000000 -16.031977 -13.092000 -11.987799 12.836459 10.233265 0.196022 74.365044 11.821366 93.012548 0.000000 0.000000 -0.000000 -32.865378 67.904765 -58.527157 -18.563488 8.045099 -61.756342 0.000000 0.000000 -0.000000 125.994931 -35.805886 -140.185524 161.386420 -35.886338 -53.651830 155.001335 58.852950 -134.330360 0.000000 0.000000 -0.000000 172.032035 -61.881302 165.252614 35.395285 -28.101165 55.292557 85.449824 -5.541090 -91.572347 0.000000 0.000000 -0.000000 -60.094421 60.340380 -16.531858 0.000000 0.000000 -0.000000
-15.778907 87.600067 -8.631396 0.000000 0.000000 -0.000000 -19.947209 -18.183588 -15.558387 -14.672457 -13.172786 18.500984 -111.261958 -33.582880 -43.659347 0.000000 0.000000 -0.000000 -16.042267 -13.118564 -11.951753 12.513037 9.856575 -0.064324 74.618722 12.263976 92.862608 0.000000 0.000000 -0.000000 -33.320452 67.599440 -57.660139 -18.674321 8.197274 -61.945378 0.000000 0.000000 -0.000000 126.985745 -35.234915 -140.824100 164.047124 -35.995115 -52.362315 154.945907 60.281556 -133.424936 0.000000 0.000000 -0.000000 172.240146 -61.503018 165.444012 35.596189 -28.080056 54.602906 86.869988 -4.449700 -91.759445 0.000000 0.000000 -0.000000 -59.522644 59.691055 -16.466255 0.000000 0.000000 -0.000000
-15.639750 87.668930 -8.795158 0.000000 0.000000 -0.000000 -19.980318 -18.127599 -15.953639 -14.924306 -13.393689 18.544606 -110.940711 -32.973015 -42.900881 0.000000 0.000000 -0.000000 -15.957032 -13.056813 -11.900510 12.058085 9.396276 -0.279943 74.946259 12.802211 92.559707 0.000000 0.000000 -0.000000 -34.670655 67.552142 -55.774792 -18.875801 8.382452 -62.032970 0.000000 0.000000 -0.000000 127.237747 -35.653715 -141.136228 164.414684 -36.310210 -52.127022 156.276174 60.296598 -134.100263 0.000000 0.000000 -0.000000 172.618466 -61.915730 165.862395 35.608629 -28.229370 53.937138 87.594377 -3.703500 -92.029472 0.000000 0.000000 -0.000000 -59.658533 59.001354 -15.574771 0.000000 0.000000 -0.000000
-15.414190 87.768913 -9.007465 0.000000 0.000000 -0.000000 -19.941827 -17.991540 -16.452163 -15.172012 -13.605211 18.696956 -110.578559 -32.175771 -41.828158 0.000000 0.000000 -0.000000 -15.805743 -12.915553 -11.879402 11.442163 8.827666 -0.442874 75.403000 13.498772 92.011695 0.000000 0.000000 -0.000000 -36.900737 67.760347 -52.933306 -19.152538 8.620222 -61.980592 0.000000 0.000000 -0.000000 126.557761 -37.217155 -141.025129 161.911087 -36.706636 -53.029352 159.494353 58.309818 -136.883733 0.000000 0.000000 -0.000000 173.484966 -63.196277 166.839849 35.265787 -28.547702 53.369948 87.381916 -3.431646 -92.272922 0.000000 0.000000 -0.000000 -60.457893 58.294491 -13.935525 0.000000 0.000000 -0.000000
-15.093902 87.904877 -9.275520 0.000000 0.000000 -0.000000 -19.871108 -17.802317 -17.088064 -15.359426 -13.736173 18.938324 -110.581058 -31.016767 -40.631977 0.000000 0.000000 -0.000000 -15.533992 -12.641340 -11.887445 10.617841 8.125241 -0.537237 75.915603 14.247725 91.291625 0.000000 0.000000 -0.000000 -40.120242 68.210801 -49.058414 -19.514857 8.853163 -61.800548 0.000000 0.000000 -0.000000 124.706373 -40.098605 -140.431749 156.051666 -37.183354 -55.207062 163.825767 53.854256 -141.154828 0.000000 0.000000 -0.000000 175.371729 -65.309580 168.917705 34.409655 -28.997932 52.947631 86.042488 -3.760872 -92.389636 0.000000 0.000000 -0.000000 -61.699771 57.506965 -11.737317 0.000000 0.000000 -0.000000
-14.662093 88.021019 -9.613248 0.000000 0.000000 -0.000000 -19.900081 -17.694269 -17.728457 -15.415374 -13.700354 19.199596 -110.884495 -29.663758 -39.341749 0.000000 0.000000 -0.000000 -15.250135 -12.335058 -11.941946 9.628898 7.310584 -0.577505 76.396443 15.016309 90.400061 0.000000 0.000000 -0.000000 -44.271546 68.845596 -44.285936 -19.966084 9.095265 -61.529162 0.000000 0.000000 -0.000000 121.341740 -44.200607 -139.253135 146.884422 -37.922956 -58.701027 167.565600 46.571977 -145.419775 0.000000 0.000000 -0.000000 178.711245 -68.047433 172.515695 33.089054 -29.524700 52.653882 83.593318 -4.625156 -92.336457 0.000000 0.000000 -0.000000 -63.151771 56.723477 -9.339216 0.000000 0.000000 -0.000000
-14.102033 88.145149 -10.021358 0.000000 0.000000 -0.000000 -20.065585 -17.702509 -18.331345 -15.321888 -13.477078 19.471661 -111.695747 -28.087313 -37.991741 0.000000 0.000000 -0.000000 -14.959621 -11.992976 -12.065845 8.477868 6.400096 -0.519387 76.791540 15.729931 89.287120 0.000000 0.000000 -0.000000 -49.471751 69.550001 -38.481268 -20.533141 9.378136 -61.214765 0.000000 0.000000 -0.000000 115.880288 -49.319061 -137.330878 135.038472 -39.780741 -63.905594 169.338900 37.087151 -148.472493 0.000000 0.000000 -0.000000 -175.446183 -71.238797 178.682131 31.287085 -30.035536 52.444074 79.921433 -5.888980 -92.078688 0.000000 0.000000 -0.000000 -64.849168 55.856005 -6.623172 0.000000 0.000000 -0.000000
-13.385987 88.298149 -10.489594 0.000000 0.000000 -0.000000 -20.420325 -17.891759 -18.768428 -15.129912 -13.122868 19.724832 -113.187322 -26.225950 -36.376679 0.000000 0.000000 -0.000000 -14.616936 -11.567286 -12.269152 7.215014 5.448397 -0.339376 77.092742 16.328805 88.123876 0.000000 0.000000 -0.000000 -55.694738 70.203125 -31.682217 -21.243264 9.773811 -60.896594 0.000000 0.000000 -0.000000 107.392943 -55.191982 -134.486833 120.523863 -43.653684 -72.084484 168.857805 26.168174 -150.202305 0.000000 0.000000 -0.000000 -165.461009 -74.533649 -170.955544 29.142692 -30.577678 52.299190 75.187002 -7.378204 -91.583328 0.000000 0.000000 -0.000000 -66.622296 54.841032 -3.711204 0.000000 0.000000 -0.000000
-12.493548 88.460960 -10.990169 0.000000 0.000000 -0.000000 -20.935073 -18.247805 -18.991963 -14.710726 -12.512228 19.931726 -115.624998 -24.115914 -34.660415 0.000000 0.000000 -0.000000 -14.164949 -11.029717 -12.491538 5.896130 4.502062 -0.040178 77.308649 16.835159 87.071623 0.000000 0.000000 -0.000000 -62.989309 70.688995 -23.827456 -22.202103 10.251389 -60.711142 0.000000 0.000000 -0.000000 94.141583 -61.432741 -130.247518 101.532417 -50.672041 -87.318779 166.071711 14.987241 -150.609857 0.000000 0.000000 -0.000000 -148.718606 -77.246860 -153.795207 26.720763 -31.085572 52.330788 69.328867 -8.949313 -90.745582 0.000000 0.000000 -0.000000 -68.421049 53.678829 -0.663495 0.000000 0.000000 -0.000000
-11.407124 88.618683 -11.489267 0.000000 0.000000 -0.000000 -21.489446 -18.718448 -18.824869 -14.228006 -11.854797 20.108823 -118.963272 -21.902044 -32.598592 0.000000 0.000000 -0.000000 -13.627497 -10.432081 -12.668323 4.709652 3.686808 0.316074 77.389650 17.118390 86.218035 0.000000 0.000000 -0.000000 -70.740573 70.856430 -15.529795 -23.401808 10.799024 -60.703214 0.000000 0.000000 -0.000000 74.802269 -67.458537 -124.397658 70.928545 -58.796159 -118.760584 161.542120 4.645151 -149.846127 0.000000 0.000000 -0.000000 -125.251557 -78.301414 -129.893759 24.217184 -31.573844 52.452455 62.957668 -10.361008 -89.580923 0.000000 0.000000 -0.000000 -70.168498 52.501458 2.296235 0.000000 0.000000 -0.000000
-10.132254 88.753342 -11.957157 0.000000 0.000000 -0.000000 -21.944830 -19.232450 -18.141721 -13.900118 -11.388256 20.500000 -123.439872 -19.807472 -30.082996 0.000000 0.000000 -0.000000 -12.940404 -9.722502 -12.772983 3.742867 3.058305 0.650959 77.511457 17.169583 85.492395 0.000000 0.000000 -0.000000 -78.140551 70.567173 -7.497098 -24.828235 11.407353 -60.901498 0.000000 0.000000 -0.000000 49.236520 -72.786130 -116.302341 23.941213 -57.252039 -172.728636 156.274678 -4.450637 -148.005009 0.000000 0.000000 -0.000000 -102.403473 -77.184230 -106.616618 21.788229 -32.055927 52.530383 56.742188 -11.332170 -88.016862 0.000000 0.000000 -0.000000 -71.627282 51.241643 5.019432 0.000000 0.000000 -0.000000
